<svg width="28" height="28" viewBox="0 0 28 28" fill="none" xmlns="http://www.w3.org/2000/svg">
<path d="M6.3 26.25C2.82187 26.25 0 22.7227 0 18.375C0 14.9406 1.75875 12.0203 4.20875 10.943C4.20437 10.7953 4.2 10.6477 4.2 10.5C4.2 5.66562 7.3325 1.75 11.2 1.75C13.7944 1.75 16.0563 3.51094 17.2681 6.13594C17.9331 5.57812 18.7381 5.25 19.6 5.25C21.9187 5.25 23.8 7.60156 23.8 10.5C23.8 11.1672 23.6994 11.8016 23.52 12.3922C26.075 13.0375 28 15.8648 28 19.25C28 23.1164 25.4931 26.25 22.4 26.25H6.3ZM9.75625 14.3828C9.345 14.8969 9.345 15.7281 9.75625 16.2367C10.1675 16.7453 10.8325 16.7508 11.2394 16.2367L12.9456 14.1039V21.4375C12.9456 22.1648 13.4137 22.75 13.9956 22.75C14.5775 22.75 15.0456 22.1648 15.0456 21.4375V14.1039L16.7519 16.2367C17.1631 16.7508 17.8281 16.7508 18.235 16.2367C18.6419 15.7227 18.6462 14.8914 18.235 14.3828L14.735 10.0078C14.3237 9.49375 13.6587 9.49375 13.2519 10.0078L9.75187 14.3828H9.75625Z" fill="black"/>
</svg>
