<svg width="28" height="28" viewBox="0 0 28 28" fill="none" xmlns="http://www.w3.org/2000/svg">
<g clip-path="url(#clip0_1_18)">
<path d="M11.2 0H25.2C26.7444 0 28 1.56953 28 3.5V15.75C28 17.6805 26.7444 19.25 25.2 19.25H11.2C9.65562 19.25 8.4 17.6805 8.4 15.75V3.5C8.4 1.56953 9.65562 0 11.2 0ZM20.825 5.83516C20.6281 5.46875 20.3 5.25 19.95 5.25C19.6 5.25 19.2719 5.46875 19.075 5.83516L16.625 10.4289L15.8681 9.24219C15.6669 8.93047 15.365 8.75 15.05 8.75C14.735 8.75 14.4287 8.93047 14.2319 9.24219L11.4319 13.6172C11.1781 14.0109 11.13 14.5523 11.305 15.0062C11.48 15.4602 11.8475 15.75 12.25 15.75H15.75H17.85H24.15C24.5394 15.75 24.8938 15.482 25.0775 15.0555C25.2613 14.6289 25.2394 14.1094 25.025 13.7102L20.825 5.83516ZM14.7 5.25C14.7 4.78587 14.5525 4.34075 14.2899 4.01256C14.0274 3.68437 13.6713 3.5 13.3 3.5C12.9287 3.5 12.5726 3.68437 12.3101 4.01256C12.0475 4.34075 11.9 4.78587 11.9 5.25C11.9 5.71413 12.0475 6.15925 12.3101 6.48744C12.5726 6.81563 12.9287 7 13.3 7C13.6713 7 14.0274 6.81563 14.2899 6.48744C14.5525 6.15925 14.7 5.71413 14.7 5.25ZM2.8 7H7V21V22.75C7 23.718 7.62562 24.5 8.4 24.5H14C14.7744 24.5 15.4 23.718 15.4 22.75V21H22.4V24.5C22.4 26.4305 21.1444 28 19.6 28H2.8C1.25563 28 0 26.4305 0 24.5V10.5C0 8.56953 1.25563 7 2.8 7ZM3.15 10.5C2.765 10.5 2.45 10.8937 2.45 11.375V12.25C2.45 12.7313 2.765 13.125 3.15 13.125H3.85C4.235 13.125 4.55 12.7313 4.55 12.25V11.375C4.55 10.8937 4.235 10.5 3.85 10.5H3.15ZM3.15 16.1875C2.765 16.1875 2.45 16.5812 2.45 17.0625V17.9375C2.45 18.4188 2.765 18.8125 3.15 18.8125H3.85C4.235 18.8125 4.55 18.4188 4.55 17.9375V17.0625C4.55 16.5812 4.235 16.1875 3.85 16.1875H3.15ZM3.15 21.875C2.765 21.875 2.45 22.2687 2.45 22.75V23.625C2.45 24.1063 2.765 24.5 3.15 24.5H3.85C4.235 24.5 4.55 24.1063 4.55 23.625V22.75C4.55 22.2687 4.235 21.875 3.85 21.875H3.15ZM17.85 22.75V23.625C17.85 24.1063 18.165 24.5 18.55 24.5H19.25C19.635 24.5 19.95 24.1063 19.95 23.625V22.75C19.95 22.2687 19.635 21.875 19.25 21.875H18.55C18.165 21.875 17.85 22.2687 17.85 22.75Z" fill="black"/>
</g>
<defs>
<clipPath id="clip0_1_18">
<rect width="28" height="28" fill="white"/>
</clipPath>
</defs>
</svg>
