<svg width="28" height="28" viewBox="0 0 28 28" fill="none" xmlns="http://www.w3.org/2000/svg">
<path d="M0 4.375C0 2.92578 1.34375 1.75 3 1.75H9C10.6562 1.75 12 2.92578 12 4.375V9.625C12 11.0742 10.6562 12.25 9 12.25H3C1.34375 12.25 0 11.0742 0 9.625V4.375ZM4 5.25V8.75H8V5.25H4ZM0 18.375C0 16.9258 1.34375 15.75 3 15.75H9C10.6562 15.75 12 16.9258 12 18.375V23.625C12 25.0742 10.6562 26.25 9 26.25H3C1.34375 26.25 0 25.0742 0 23.625V18.375ZM4 19.25V22.75H8V19.25H4ZM19 1.75H25C26.6562 1.75 28 2.92578 28 4.375V9.625C28 11.0742 26.6562 12.25 25 12.25H19C17.3438 12.25 16 11.0742 16 9.625V4.375C16 2.92578 17.3438 1.75 19 1.75ZM24 5.25H20V8.75H24V5.25ZM16 16.625C16 16.1437 16.45 15.75 17 15.75H21C21.55 15.75 22 16.1437 22 16.625C22 17.1063 22.45 17.5 23 17.5H25C25.55 17.5 26 17.1063 26 16.625C26 16.1437 26.45 15.75 27 15.75C27.55 15.75 28 16.1437 28 16.625V21.875C28 22.3563 27.55 22.75 27 22.75H23C22.45 22.75 22 22.3563 22 21.875C22 21.3937 21.55 21 21 21C20.45 21 20 21.3937 20 21.875V25.375C20 25.8563 19.55 26.25 19 26.25H17C16.45 26.25 16 25.8563 16 25.375V16.625ZM23 26.25C22.7348 26.25 22.4804 26.1578 22.2929 25.9937C22.1054 25.8296 22 25.6071 22 25.375C22 25.1429 22.1054 24.9204 22.2929 24.7563C22.4804 24.5922 22.7348 24.5 23 24.5C23.2652 24.5 23.5196 24.5922 23.7071 24.7563C23.8946 24.9204 24 25.1429 24 25.375C24 25.6071 23.8946 25.8296 23.7071 25.9937C23.5196 26.1578 23.2652 26.25 23 26.25ZM27 26.25C26.7348 26.25 26.4804 26.1578 26.2929 25.9937C26.1054 25.8296 26 25.6071 26 25.375C26 25.1429 26.1054 24.9204 26.2929 24.7563C26.4804 24.5922 26.7348 24.5 27 24.5C27.2652 24.5 27.5196 24.5922 27.7071 24.7563C27.8946 24.9204 28 25.1429 28 25.375C28 25.6071 27.8946 25.8296 27.7071 25.9937C27.5196 26.1578 27.2652 26.25 27 26.25Z" fill="black"/>
</svg>
