<svg width="28" height="28" viewBox="0 0 28 28" fill="none" xmlns="http://www.w3.org/2000/svg">
<path d="M2.37138 11.0961C5.39013 7.47578 9.48513 5.25 14.0001 5.25C18.5151 5.25 22.6101 7.47578 25.6289 11.0961C26.1889 11.7633 27.0726 11.7414 27.6064 11.0469C28.1401 10.3523 28.1226 9.24219 27.567 8.575C24.0495 4.34766 19.2676 1.75 14.0001 1.75C8.73263 1.75 3.95075 4.34766 0.428878 8.56953C-0.126747 9.24219 -0.144247 10.3469 0.389503 11.0469C0.923253 11.7469 1.81138 11.7687 2.367 11.0961H2.37138ZM14.0001 14C16.4851 14 18.7514 15.1539 20.4839 17.0625C21.0658 17.7023 21.9495 17.6313 22.4614 16.9094C22.9733 16.1875 22.9164 15.0773 22.3389 14.4375C20.1164 11.9875 17.1939 10.5 14.0001 10.5C10.8064 10.5 7.88388 11.9875 5.66575 14.4375C5.08388 15.0773 5.03138 16.182 5.54325 16.9094C6.05513 17.6367 6.93888 17.7023 7.52075 17.0625C9.24888 15.1539 11.5151 14 14.0045 14H14.0001ZM16.8001 22.75C16.8001 21.8217 16.5051 20.9315 15.98 20.2751C15.4549 19.6187 14.7427 19.25 14.0001 19.25C13.2575 19.25 12.5453 19.6187 12.0202 20.2751C11.4951 20.9315 11.2001 21.8217 11.2001 22.75C11.2001 23.6783 11.4951 24.5685 12.0202 25.2249C12.5453 25.8813 13.2575 26.25 14.0001 26.25C14.7427 26.25 15.4549 25.8813 15.98 25.2249C16.5051 24.5685 16.8001 23.6783 16.8001 22.75Z" fill="black"/>
</svg>
